<svg width="150" height="150" viewBox="0 0 150 150" fill="none" xmlns="http://www.w3.org/2000/svg">
<path d="M100 149.999V125C113.833 125 125 113.833 125 100H149.999C149.999 127.666 127.583 149.999 100 149.999Z" fill="#0088FF"/>
<path d="M99.9994 149.999V125C86.1662 125 74.9997 113.833 74.9997 100H50C50 127.666 72.4164 149.999 99.9994 149.999Z" fill="#0088FF"/>
<path d="M0 99.9973H24.9997C24.9997 113.83 36.1662 124.997 49.9994 124.997V149.997C22.4164 149.997 0 127.664 0 99.9973Z" fill="#0088FF"/>
<path d="M0 99.9987H24.9997C24.9997 86.1655 36.1662 74.999 49.9994 74.999V49.9993C22.4164 49.9993 0 72.4157 0 99.9987Z" fill="#0088FF"/>
<path d="M49.9994 0V24.9997C36.1662 24.9997 24.9997 36.1662 24.9997 49.9994H0C0 22.4164 22.4164 0 49.9994 0Z" fill="#0088FF"/>
<path d="M50 0V24.9997C63.8332 24.9997 74.9997 36.1662 74.9997 49.9994H99.9994C99.9994 22.4164 77.583 0 50 0Z" fill="#0088FF"/>
<path d="M149.997 49.9994H124.998C124.998 36.1662 113.831 24.9997 99.998 24.9997V0C127.581 0 149.997 22.4164 149.997 49.9994Z" fill="#0088FF"/>
<path d="M149.997 49.999H124.998C124.998 63.8322 113.831 74.9987 99.998 74.9987V99.9984C127.581 99.9984 149.997 77.6654 149.997 49.999Z" fill="#0088FF"/>
</svg>
